# xmcd
#
# Track frame offsets: 
#        150
#        17031
#        39544
#        64046
#        81231
#        99421
#        110043
#        132145
#        149059
#        165939
#        178966
#        192233
#        213122
#        227247
#
# Disc length: 3360 seconds
#
# Revision: 0
# Processed by: cddbd v1.5.2PL0 Copyright (c) Steve Scherf et al.
# Submitted via: ExactAudioCopy v1.0b1
#
DISCID=c30d1e0e
DTITLE=M.S.G.-The Acoustic Blues Trio - Done Spoke My Mind
DYEAR=2008
DGENRE=Blues
TTITLE0=God Don't Like it
TTITLE1=Mean Church People
TTITLE2=Resolution
TTITLE3=The Katrina Flood
TTITLE4=Racetrack Blues
TTITLE5=Penniless Rag
TTITLE6=It's Always Something
TTITLE7=Ain't No Grave
TTITLE8=Come Back Baby
TTITLE9=Fast Food Mama
TTITLE10=I Need More Trouble Like That
TTITLE11=Sometimes
TTITLE12=Go Down Old Hannah
TTITLE13=I Heard The Angels Singing
EXTD=
EXTT0=
EXTT1=
EXTT2=
EXTT3=
EXTT4=
EXTT5=
EXTT6=
EXTT7=
EXTT8=
EXTT9=
EXTT10=
EXTT11=
EXTT12=
EXTT13=
PLAYORDER=
